<?xml version="1.0" encoding="utf-8"?>
<!-- Generator: Adobe Illustrator 23.0.3, SVG Export Plug-In . SVG Version: 6.00 Build 0)  -->
<svg version="1.1" id="Capa_1" xmlns="http://www.w3.org/2000/svg" xmlns:xlink="http://www.w3.org/1999/xlink" x="0px" y="0px"
	 viewBox="0 0 300 30" style="enable-background:new 0 0 300 30;" xml:space="preserve">
<style type="text/css">
	.st0{fill-rule:evenodd;clip-rule:evenodd;fill:#3B1F1B;}
</style>
<g id="XMLID_2_">
	<path id="XMLID_27_" class="st0" d="M138.5,23l-5.2-6c-0.1,0.2-0.3,0.6-0.5,1.2c-0.2,0.5-0.3,1.1-0.3,1.7c0,0.7,0.1,1.3,0.3,1.8
		s0.4,0.9,0.8,1.3c0.3,0.3,0.7,0.6,1.1,0.8c0.4,0.2,0.8,0.3,1.2,0.3c0.5,0,1,0,1.4-0.2C137.6,23.7,138.1,23.4,138.5,23z M136.7,9.6
		c0-0.5-0.1-0.9-0.2-1.3c-0.1-0.3-0.3-0.6-0.4-0.8c-0.2-0.2-0.4-0.3-0.6-0.3c-0.2,0-0.3-0.1-0.5-0.1c-0.1,0-0.3,0-0.4,0.1
		c-0.2,0-0.3,0.1-0.6,0.3c-0.2,0.1-0.3,0.4-0.4,0.7c-0.1,0.3-0.2,0.7-0.2,1.1c0,0.6,0.2,1.2,0.5,1.7s0.8,1.1,1.4,1.7
		c0.4-0.5,0.8-0.9,1-1.5C136.6,10.8,136.7,10.3,136.7,9.6z M142.3,27.6l-1.6-1.9c-0.9,0.9-1.9,1.5-2.9,1.8s-2,0.5-3.1,0.5
		c-2.3,0-4.1-0.7-5.3-2.1c-1.3-1.4-1.9-3.1-1.9-5.2c0-0.9,0.1-1.7,0.3-2.3c0.2-0.6,0.5-1.2,0.9-1.7c0.3-0.5,0.7-0.9,1.1-1.3
		c0.4-0.4,0.8-0.7,1.3-0.9c-0.4-0.4-0.7-0.7-1-1c-0.3-0.4-0.5-0.7-0.8-1.2c-0.2-0.4-0.4-0.8-0.5-1.3s-0.2-1-0.2-1.7s0.1-1.3,0.4-2
		c0.2-0.6,0.6-1.2,1.2-1.8c0.5-0.5,1.2-0.9,2.1-1.2c0.9-0.3,1.9-0.5,3.1-0.5c1,0,1.9,0.2,2.7,0.4c0.8,0.3,1.4,0.6,1.9,1.1
		c0.5,0.4,0.9,1,1.1,1.6c0.2,0.6,0.4,1.3,0.4,2c0,0.5-0.1,1-0.2,1.5c-0.1,0.6-0.3,1.1-0.6,1.6c-0.4,0.6-0.8,1.1-1.4,1.5
		c-0.6,0.4-1.3,0.8-2.1,1.1l3.7,4.4l0.1-4.9h4.6v1.7c0,0.4,0,0.9-0.1,1.6c-0.1,0.6-0.2,1.2-0.3,1.6c-0.1,0.5-0.3,1-0.6,1.6
		c-0.2,0.5-0.5,1-0.9,1.5l4.7,5.4L142.3,27.6L142.3,27.6z"/>
	<path id="XMLID_22_" class="st0" d="M293.1,23.1c0-0.1,0-0.2,0-0.2c0-0.1-0.1-0.1-0.2-0.2c-0.1,0-0.1-0.1-0.2-0.1s-0.2,0-0.3,0H292
		v1.1h0.2c0.1,0,0.3,0,0.4,0s0.2-0.1,0.3-0.1c0.1,0,0.1-0.1,0.2-0.2C293.1,23.3,293.1,23.2,293.1,23.1z M294.7,25.9h-1.2l-1.2-1.5
		H292v1.5h-1v-4h1.5c0.3,0,0.5,0,0.7,0s0.3,0.1,0.5,0.2s0.3,0.2,0.4,0.4c0.1,0.1,0.1,0.3,0.1,0.5c0,0.3-0.1,0.5-0.2,0.7
		c-0.2,0.2-0.4,0.3-0.6,0.4L294.7,25.9z M295.7,24c0-0.9-0.3-1.6-0.9-2.2s-1.4-0.9-2.2-0.9c-0.9,0-1.6,0.3-2.2,0.9s-0.9,1.4-0.9,2.2
		c0,0.9,0.3,1.6,0.9,2.2s1.4,0.9,2.2,0.9c0.9,0,1.6-0.3,2.2-0.9C295.4,25.6,295.7,24.9,295.7,24z M296.6,24c0,1.1-0.4,2.1-1.2,2.9
		c-0.8,0.8-1.7,1.2-2.9,1.2c-1.1,0-2.1-0.4-2.8-1.2c-0.8-0.8-1.2-1.7-1.2-2.9c0-1.1,0.4-2,1.2-2.8c0.8-0.8,1.7-1.2,2.9-1.2
		c1.1,0,2.1,0.4,2.8,1.2C296.2,22,296.6,22.9,296.6,24z"/>
	<path id="XMLID_21_" class="st0" d="M172.6,8.2c0.5,0.2,0.7,0.7,0.7,1.3l-0.7,7.6l0,0L170.3,4h-4l-2.2,13.2l0,0l-0.8-7.6
		c0-0.6,0.2-1.1,0.7-1.3V3.9h-8.2v4.3c0.7,0.6,0.9,1.8,1.1,2.8l2.8,17h6.2l2-11.5l0,0l1.9,11.5h6.3l2.8-17c0.2-1,0.2-2.1,1-2.8V3.9
		h-7.1v4.3H172.6z"/>
	<path id="XMLID_18_" class="st0" d="M187.1,23.8c-0.6-0.2-0.9-0.6-0.9-1.3c0-0.2,0.1-0.5,0.1-0.7h3.2c0.1,0.2,0.1,0.5,0.1,0.7
		c0,0.6-0.2,1.1-0.8,1.3v4.3h8.3v-4.3c-0.7-0.3-1-1.6-1.1-2.4l-3-17.5h-9.4L180.8,21c-0.2,0.9-0.3,2.2-1,2.7V28h7.2v-4.2H187.1z
		 M186.8,17l1-7.1h0.1L189,17H186.8z"/>
	<path id="XMLID_17_" class="st0" d="M214.1,12.2V3.9h-15.3v4.3c0.8,0.3,0.8,1.1,0.8,2.4v10.8c0,0.9,0.1,1.8-0.7,2.4v4.3h8v-4.3
		c-0.8-0.6-0.7-1.5-0.7-2.4v-3.1h4.2v-4.7h-4.2V9.1c1.3-0.1,1.8,0.1,2,0.7c0.3,0.5,0.2,1.4,0.2,2.5h5.7V12.2z"/>
	<path id="XMLID_16_" class="st0" d="M230.8,12.2V3.9h-15.3v4.3c0.8,0.3,0.8,1.1,0.8,2.4v10.8c0,0.9,0.1,1.8-0.7,2.4v4.3h8v-4.3
		c-0.8-0.6-0.7-1.5-0.7-2.4v-3.1h4.2v-4.7h-4.2V9.1c1.3-0.1,1.8,0.1,2.1,0.7c0.3,0.5,0.2,1.4,0.2,2.5h5.6V12.2z"/>
	<path id="XMLID_15_" class="st0" d="M247.5,28.1V16.4h-5.8v3.9c0,1.5,0,2.7-1.6,2.7h-0.6V10.6c0-0.9-0.1-1.8,0.7-2.4V3.9h-8v4.3
		c0.8,0.6,0.7,1.5,0.7,2.4v10.8c0,0.9,0.1,1.8-0.7,2.4v4.3C232.2,28.1,247.5,28.1,247.5,28.1z"/>
	<path id="XMLID_14_" class="st0" d="M259.8,19.3v0.8c0,2,0,2.8-2,2.8h-0.4V18h4.2v-4.7h-4.2V9.1h0.4c1.8,0,2,0.7,2,2.3v0.7h6.1V3.9
		h-15.8v4.3c0.8,0.6,0.7,1.5,0.7,2.4v10.8c0,0.9,0.1,1.8-0.7,2.4v4.3h15.8v-8.7h-6.1V19.3z"/>
	<path id="XMLID_13_" class="st0" d="M277.7,11.7h6.1V6c-2.4-1.9-4.9-2.5-7.8-2.5c-2,0-4,0.3-5.4,1.5c-1.7,1.5-2.1,2.8-2.2,5.4v0.5
		c0,5.2,2.2,6.3,6.2,7.4c1.8,0.5,3.2,0.7,3.2,3.2c0,0.9-0.4,1.8-1.3,1.8c-0.5,0-1-0.3-1.2-0.8s-0.2-1.6-0.2-3h-6.4V26
		c2.1,2,5,2.5,7.7,2.5c6.3,0,8.1-3.4,8.1-8.1v-0.1c0-1.1-0.2-2.3-0.5-3.3s-0.9-1.7-1.6-2.3c-1.3-1-3.4-1.7-5-2.2
		c-0.5-0.2-1.5-0.5-1.8-1c-0.3-0.4-0.4-0.9-0.4-1.4c0-0.9,0.4-1.6,1.3-1.6c1.3,0,1.3,1.5,1.3,2.6v0.6H277.7z"/>
	<path id="XMLID_12_" class="st0" d="M15.7,12.8H22V6.1c-2.1-1.6-4.8-2.5-7.3-2.6S9.9,4,8.4,5.3C7,6.8,6.7,8.9,6.7,11v8.4
		c0,2.6-0.1,5.2,1.8,7.1c1.3,1.4,3.9,2.1,6.5,2c2.7-0.1,5.4-1,7.1-2.6v-8.1h-6.4v2.7c0,1,0.2,2.7-1.2,2.7s-1.2-1.7-1.2-2.7v-9.3
		c0-1-0.2-2.7,1.2-2.7s1.2,1.7,1.2,2.7C15.7,11.2,15.7,12.8,15.7,12.8z"/>
	<path id="XMLID_9_" class="st0" d="M32,8.9h0.7c1.4,0,1.9,0.8,1.9,2.4c0,1.7-0.4,2.5-1.9,2.5H32V8.9z M32,18.7h0.3
		c1.8,0.1,2,1,2,2.9c-0.1,4,0.1,5.1,0.4,6.5h7.1v-4.3C41,23.4,41,22.2,41,21.4V20c0-2.4-0.7-3.5-2.8-4l0,0c2.4-0.7,3.2-3,3.2-5.7
		c0-2.2-0.6-4.2-2.3-5.4c-1.4-1-3.5-1-5.1-1h-9.1v4.3c0.8,0.6,0.7,1.5,0.7,2.4v10.8c0,0.9,0.1,1.8-0.7,2.4v4.3h8v-4.3
		C32,23.2,32,22.3,32,21.4V18.7z"/>
	<path id="XMLID_8_" class="st0" d="M54.3,19.3v0.8c0,2,0,2.8-2,2.8h-0.4V18h4.2v-4.7h-4.2V9.1h0.4c1.8,0,2,0.7,2,2.3v0.7h6.1V3.9
		H44.6v4.3c0.8,0.6,0.7,1.5,0.7,2.4v10.8c0,0.9,0.1,1.8-0.7,2.4v4.3h15.8v-8.7h-6.1V19.3z"/>
	<path id="XMLID_5_" class="st0" d="M70.4,9H71c1.9,0,1.9,1.3,1.9,3.5S73,16,71,16h-0.6V9z M63.8,21.4c0,0.9,0.1,1.8-0.7,2.4v4.3h8
		v-4.3c-0.8-0.6-0.7-1.5-0.7-2.6h2.3c5.4,0,6.7-2.8,6.7-7.4v-1.9c0-0.6,0.3-4.5-2.1-6.6C75.8,4,73.4,4,71.6,4H63v4.3
		c0.8,0.6,0.7,1.5,0.7,2.4L63.8,21.4L63.8,21.4z"/>
	<path id="XMLID_4_" class="st0" d="M90.7,19.3v0.8c0,2,0,2.8-2,2.8h-0.4V18h4.2v-4.7h-4.2V9.1h0.4c1.8,0,2,0.7,2,2.3v0.7h6.1V3.9
		H81v4.3c0.8,0.6,0.7,1.5,0.7,2.4v10.8c0,0.9,0.1,1.8-0.7,2.4v4.3h15.8v-8.7h-6.1V19.3z"/>
	<path id="XMLID_3_" class="st0" d="M108.7,11.7h6.1V6c-2.4-1.9-4.9-2.5-7.8-2.5c-2,0-4,0.3-5.4,1.5c-1.7,1.5-2.1,2.8-2.2,5.4v0.5
		c0,5.2,2.2,6.3,6.2,7.4c1.8,0.5,3.2,0.7,3.2,3.2c0,0.9-0.4,1.8-1.3,1.8c-0.5,0-1-0.3-1.2-0.8s-0.2-1.6-0.2-3h-6.4V26
		c2.2,2,5,2.5,7.7,2.5c6.3,0,8.1-3.4,8.1-8.1v-0.1c0-1.1-0.1-2.3-0.5-3.3c-0.3-1-0.9-1.7-1.6-2.3c-1.3-1-3.4-1.7-5-2.2
		c-0.5-0.2-1.5-0.5-1.8-1c-0.3-0.4-0.4-0.9-0.4-1.4c0-0.9,0.4-1.6,1.3-1.6c1.3,0,1.3,1.5,1.3,2.6L108.7,11.7L108.7,11.7z"/>
</g>
</svg>
